<?xml version="1.0" encoding="UTF-8"?>
<svg id="Laag_1" data-name="Laag 1" xmlns="http://www.w3.org/2000/svg" xmlns:xlink="http://www.w3.org/1999/xlink" viewBox="0 0 375 86.38">
  <defs>
    <style>
      .cls-1 {
        fill: #f59d36;
      }

      .cls-2 {
        fill: #3d7f32;
      }

      .cls-3 {
        fill: none;
        filter: url(#drop-shadow-1);
      }
    </style>
    <filter id="drop-shadow-1" filterUnits="userSpaceOnUse">
      <feOffset dx="7" dy="7"/>
      <feGaussianBlur result="blur" stdDeviation="5"/>
      <feFlood flood-color="#1d1d1b" flood-opacity=".75"/>
      <feComposite in2="blur" operator="in"/>
      <feComposite in="SourceGraphic"/>
    </filter>
  </defs>
  <rect x="-.09" width="375" height="86.38"/>
  <g class="cls-3">
    <path class="cls-2" d="m243.7,48.87c-35.06,32.22-68.39,32.15-103.38,0,0-7.09,0-10.63,0-17.71,34.99-32.15,68.32-32.22,103.38,0v17.71Z"/>
  </g>
  <g>
    <path class="cls-1" d="m171.61,30.44c-3.15.2-6.3.54-9.42.99-.16,1.45-.33,2.91-.54,4.44,3.14-.17,8.64-.63,11.74-1.09.89.72.74,3.51.49,5.22-7.18-.19-14.48-.08-22.07.14,1.25-5.17,1.99-10.77,2.37-16.38,6.94-2.46,17.56-4.32,20.9-5.94,1.25,2.69-.15,5.71-3.51,6.25-2.53.41-6.94.89-8.78,1.13-.07,1.2-.2,2.38-.32,3.55,3.31-.55,6.59-1.05,9.93-1.53.29,1,.21,2.09-.79,3.22Z"/>
    <path class="cls-1" d="m203.31,22.72c-1.7,2.73-7.83,1.8-9.66-.37.61-1.85.9-2.9.66-4.65-2.83,0-6.36,2.92-6.84,9.09-.24,3.14.39,6.26,4.03,7.28,2.89.81,8.64.02,10.68-4.68.49,9.66-7.85,11.12-12.11,11.12-8.65,0-14.07-4.17-13.61-12.13.43-7.27,6.24-12.18,15.72-12.26,8.26-.07,12.98,3.62,11.12,6.6Z"/>
    <path class="cls-1" d="m234.27,32c-.42,5.04-6.99,8.51-15.74,8.51-9.07,0-14.59-5.32-13.77-12.47.8-6.95,7.14-10.65,16.02-8.29,8.74,2.33,13.88,7.48,13.49,12.25Zm-18.53-3.14c-.22,2.07-.25,4.4.33,9.44.04.49.41.62,1.15.63,2.64.04,5.77-1.52,6.28-9.02.12-1.72.21-5.47-.63-7.54-.22-.54-.36-.65-1.05-.81-2.95-.73-5.38.63-6.08,7.3Z"/>
  </g>
  <g>
    <path class="cls-1" d="m164.5,49.24c-.27,3.15-2.67,5.17-7.66,3.91-.18,1.92-.27,2.87-.45,4.76-1.57-.34-3.13-.96-4.68-1.76.46-4.72.69-7.17,1.18-12.24,7.04-.77,12.03.44,11.6,5.33Zm-6.85-4.49c-.28,2.95-.41,4.4-.69,7.26,1.92.44,2.24-2.17,2.35-3.59.2-2.45-.24-3.83-1.67-3.68Z"/>
    <path class="cls-1" d="m174.86,54.2c-1.53-.22-3.05-.4-4.58-.55-.11,1.32-.22,2.65-.36,4.06,1.52.3,4.2.54,5.72.45.42.71.3,3.09.14,4.55-3.5-.71-7.05-1.4-10.7-2.16.69-5.37,1.17-10.91,1.47-16.53,3.46.19,8.58.68,10.2-.23.55,2.48-.18,4.91-1.79,4.87-1.21-.03-3.36-.45-4.25-.65-.06,1.09-.15,2.16-.23,3.22,1.61.16,3.21.26,4.82.28.12.91.06,1.84-.44,2.69Z"/>
    <path class="cls-1" d="m191.92,53.3c-.17,5.99-1.51,13.59-14.28,9.66.56-7.5.84-11.28,1.39-18.9,9.24-2.04,13.08,2.9,12.89,9.24Zm-8.09-8.16c-.46,6.93-.69,10.38-1.17,17.25,2.16.25,3.62-2.24,3.93-8.87.31-6.55-.86-8.68-2.76-8.37Z"/>
    <path class="cls-1" d="m206.24,62.81c-1.67.51-3.35.72-5.03.59-.17-2.02-.26-3.03-.43-5.06-1.28.09-1.92.12-3.19.18-.41,2.08-.61,3.12-1.02,5.21-1.68.37-3.37.41-5.06.13,2.2-7.91,3.27-11.92,5.39-19.78,2.06-.29,4.14-.29,6.2-.01,1.24,7.65,1.88,11.41,3.15,18.75Zm-8.11-7.2c.96-.04,1.44-.06,2.39-.11-.12-1.36-.18-2.04-.3-3.41-.15-1.65-.36-2.79-.31-5.1-.09.01-.13.02-.22.03-.23,2.21-.56,3.5-.91,5.21-.26,1.35-.39,2.03-.66,3.39Z"/>
    <path class="cls-1" d="m212.61,54.34c-.08,1.54-.42,2.98-.9,4.13,2.83-1.69,4.38-1.36,5.7-2.44.6,1.19.37,3.13-.36,4.87-3.25.65-6.51,1.29-9.84,1.77.56-5.6,1.03-12.35,1.23-18.41,1.67-.31,3.35-.3,5.03-.04-.43,2.65-.7,6.68-.87,10.11Z"/>
    <path class="cls-1" d="m230.68,45.12c1.05,1.32.02,3.9-3.33,3.55-.11-2.85-1.15-4.04-2.4-4.01-1.47.04-1.19,1.92-.39,2.77.84.88,4.88,3.03,5.94,4.43,1.18,1.57.04,4.98-5.9,6.98-1.25.42-3.17.87-4.31.39-2.17-.93-2.39-5.29,2.58-5.4.13,2.73.82,4.22,2.19,3.78,1.47-.47,1.34-2.25.34-3.13-1.08-.94-4.53-2.23-5.58-4.56-1.02-2.28-.24-6.33,5.53-6.33,1.88,0,4.43.39,5.33,1.51Z"/>
  </g>
</svg>