<?xml version="1.0" encoding="UTF-8"?>
<svg id="Laag_1" data-name="Laag 1" xmlns="http://www.w3.org/2000/svg" xmlns:xlink="http://www.w3.org/1999/xlink" viewBox="0 0 375 106.66">
  <defs>
    <style>
      .cls-1 {
        stroke: #1d1d1b;
        stroke-miterlimit: 10;
      }

      .cls-2 {
        fill: #fff;
      }

      .cls-3 {
        fill: #3d7f32;
      }

      .cls-4 {
        fill: #706f6f;
      }

      .cls-5 {
        fill: none;
        filter: url(#drop-shadow-1);
      }
    </style>
    <filter id="drop-shadow-1" filterUnits="userSpaceOnUse">
      <feOffset dx="7" dy="7"/>
      <feGaussianBlur result="blur" stdDeviation="5"/>
      <feFlood flood-color="#1d1d1b" flood-opacity=".75"/>
      <feComposite in2="blur" operator="in"/>
      <feComposite in="SourceGraphic"/>
    </filter>
  </defs>
  <rect class="cls-1" x="0" y="-.48" width="375" height="86.38"/>
  <g class="cls-5">
    <path class="cls-3" d="m243.92,48.27c-37.86,35.15-75.05,35.08-112.84,0v-19.33c37.79-35.08,74.98-35.15,112.84,0v19.33Z"/>
  </g>
  <g>
    <path class="cls-2" d="m159.94,33.97c.32-.32.48-.48.8-.8,0-.05,0-.08,0-.13-.96.57-2.13.93-3.56.93-4.9,0-8.17-3.37-8.17-7.55s3.12-8.92,7.94-10.45c6.12-1.95,7.69,5.1,7.69,5.1-2.04.31-3.06.48-5.08.85,0,0-.63-1.28-2.45-.87-1.71.39-2.9,2.08-2.88,4.38.02,2.31,1.25,3.57,2.98,3.42,2.13-.19,2.62-1.75,2.62-1.75-.65.07-.98.1-1.63.17-.02-1.44-.03-2.16-.05-3.6,2.63-.45,3.95-.65,6.61-1,.02,1.58.03,2.37.06,3.94.04,2.94.06,4.41.11,7.34-2,0-3,0-5,0Z"/>
    <path class="cls-2" d="m167.42,13.8c3.2-.63,4.81-.89,8.04-1.27,3.72-.44,6.03,2.83,6.06,7.4.02,4.58-2.43,6.16-2.43,6.16,1.09,2.87,1.63,4.33,2.71,7.26-2.04,0-3.06,0-5.11.01-.84-2.27-1.26-3.4-2.1-5.62-.74.03-1.11.04-1.84.07.03,2.22.04,3.33.06,5.56-2.04,0-3.06.01-5.1.02-.11-7.84-.16-11.76-.27-19.61Zm7.51,8.3c.82-.06,1.33-.84,1.32-1.88,0-1.05-.53-1.75-1.36-1.68-.91.08-1.36.13-2.27.22.02,1.4.02,2.11.04,3.51.9-.07,1.36-.11,2.26-.17Z"/>
    <path class="cls-2" d="m183.55,11.9c4.78-.18,7.18-.14,11.96.23-.02,2.43-.02,3.64-.04,6.06-2.69-.15-4.03-.2-6.72-.22,0,.8,0,1.2,0,2,2.11.02,3.16.04,5.27.13-.01,2.07-.02,3.11-.03,5.18-2.1-.05-3.15-.07-5.24-.08,0,.8,0,1.2,0,2,2.67,0,4,.03,6.67.09-.02,2.43-.02,3.64-.04,6.06-4.7-.01-7.05-.01-11.74,0-.03-8.58-.04-12.87-.07-21.45Z"/>
    <path class="cls-2" d="m197.68,12.33c4.77.47,7.14.85,11.84,1.87-.03,2.2-.05,3.29-.08,5.49-2.66-.42-3.99-.6-6.66-.89,0,.76-.01,1.14-.02,1.9,2.1.2,3.14.32,5.23.59-.03,1.9-.04,2.84-.07,4.74-2.08-.17-3.13-.24-5.22-.37,0,.76-.01,1.14-.02,1.9,2.66.12,3.99.2,6.65.38-.03,2.2-.05,3.29-.08,5.49-4.7-.03-7.04-.04-11.74-.05.07-8.41.1-12.62.17-21.04Z"/>
    <path class="cls-2" d="m211.67,14.69c2.28.55,3.41.86,5.67,1.54,1.49,3.72,2.24,5.49,3.75,8.8.07.01.11.02.18.03-.11-.94-.17-1.41-.28-2.35.02-2.11.03-3.17.05-5.28,1.99.69,2.98,1.05,4.94,1.84v14.28c-2.28-.02-3.43-.04-5.71-.06-1.52-3.08-2.27-4.75-3.77-8.26-.08-.01-.12-.02-.2-.03.11.97.16,1.45.27,2.41-.03,2.34-.05,3.51-.08,5.85-2.04-.02-3.06-.02-5.1-.04.11-7.49.16-11.24.27-18.74Z"/>
  </g>
  <g>
    <path class="cls-2" d="m148.93,41.94c.42,3.42.63,5.18,1.04,8.78.07.01.11.02.19.04.56-3.42.84-5.18,1.41-8.79,1.98.02,2.97.03,4.95.04.5,3.95.75,5.97,1.25,10.09.08.01.11.02.19.03.48-3.98.73-6,1.21-10.1,1.86.01,2.79.02,4.65.03-1.19,7.59-1.78,11.28-2.97,18.4-2.27-.54-3.4-.83-5.65-1.48-.47-3.84-.7-5.72-1.17-9.4-.08-.01-.11-.02-.19-.03-.54,3.52-.81,5.24-1.35,8.6-2.27-.72-3.4-1.11-5.65-1.95-1.03-6.11-1.56-8.99-2.66-14.31,1.9.02,2.84.03,4.74.05Z"/>
    <path class="cls-2" d="m165.05,42.06c1.9.01,2.85.02,4.75.02-.04,2.75-.06,4.13-.09,6.88,1.52.09,2.29.13,3.81.19.03-2.82.05-4.24.08-7.06,1.9,0,2.85,0,4.75.01-.07,8.42-.1,12.64-.16,21.06-1.93-.16-2.89-.25-4.82-.49.03-2.82.05-4.23.08-7.06-1.53-.13-2.3-.2-3.82-.36-.04,2.75-.06,4.13-.09,6.88-1.92-.3-2.87-.47-4.78-.85.12-7.69.18-11.54.31-19.24Z"/>
    <path class="cls-2" d="m180.62,42.12c4.37,0,6.55,0,10.92,0,0,2.44.01,3.66.02,6.1-2.48.03-3.72.03-6.2.02,0,.8,0,1.19,0,1.99,1.95.01,2.93.01,4.88,0,0,2.08,0,3.12.01,5.2-1.96.03-2.94.03-4.9,0,0,.79,0,1.19,0,1.99,2.5.03,3.75.03,6.25-.04,0,2.44.01,3.66.02,6.1-4.45.16-6.68.13-11.12-.14.05-8.49.08-12.73.13-21.22Z"/>
    <path class="cls-2" d="m193.53,42.12c4.37,0,6.55-.01,10.92-.03.03,2.31.05,3.46.08,5.77-2.48.11-3.71.16-6.19.23,0,.78.01,1.17.02,1.94,1.95-.07,2.92-.12,4.87-.23.02,1.98.04,2.97.06,4.95-1.95.17-2.93.24-4.88.36,0,.78.01,1.17.02,1.94,2.5-.17,3.74-.28,6.23-.55.03,2.31.05,3.46.08,5.77-4.41.66-6.63.88-11.08,1.12-.04-8.51-.07-12.76-.11-21.27Z"/>
    <path class="cls-2" d="m206.43,42.08c1.9,0,2.85-.01,4.75-.03.09,5.21.13,7.81.21,13.02,2.39-.35,3.59-.55,5.97-.99.04,2.21.06,3.32.09,5.53-4.26,1.14-6.41,1.6-10.73,2.33-.11-7.95-.17-11.92-.29-19.87Z"/>
    <path class="cls-2" d="m222.62,52.68s.31,1.67,1.99,1.23c1.03-.27,1.39-.8,1.39-1.23-.02-1.93-7.7.74-7.81-5.71-.05-2.73,2-5.46,5.98-5.46,5.5,0,6.27,4.51,6.27,4.51-1.87.24-2.81.35-4.7.56,0,0-.2-1.17-1.43-1.07-.91.07-1.22.49-1.22.9.02,1.59,7.72-.34,7.72,4.59,0,2.37-2.08,5.48-6.16,6.9-5.84,2.03-6.74-4.28-6.74-4.28,1.89-.35,2.83-.53,4.7-.93Z"/>
  </g>
  <rect class="cls-4" x="0" y="85.9" width="375" height="20.76"/>
</svg>